<?xml version="1.0" encoding="UTF-8"?>
<svg version="1.1" xmlns="http://www.w3.org/2000/svg" width="500" height="500">
<path d="M0 0 C0.66 0 1.32 0 2 0 C3.19140625 1.6171875 3.19140625 1.6171875 4.5625 3.875 C17.55054866 23.80869578 37.96844315 34.43354341 58 46 C60.96476478 47.71848709 63.92278076 49.44757423 66.875 51.1875 C67.96554688 51.82042969 69.05609375 52.45335937 70.1796875 53.10546875 C78.10442003 58.42886941 82.46283807 65.36405678 86 74 C87.96493574 73.65479552 87.96493574 73.65479552 90 73 C92.53350988 68.81970869 92.23276915 64.73297275 92 60 C91.67 59.34 91.34 58.68 91 58 C87.97065509 57.34227572 87.97065509 57.34227572 85 57 C85.0625 54.6875 85.0625 54.6875 86 52 C91.09984171 48.91884563 96.09893867 48.04250857 102 49 C105.99513313 50.54650315 108.5879892 52.38198381 111 56 C111.29452584 58.38677076 111.4928217 60.78626094 111.625 63.1875 C111.73714844 65.09595703 111.73714844 65.09595703 111.8515625 67.04296875 C111.92503906 68.50669922 111.92503906 68.50669922 112 70 C113.9378763 69.81776133 113.9378763 69.81776133 116 69 C117.38321265 66.92736275 118.32631227 64.78235946 119.36328125 62.51953125 C124.1383182 55.16893737 132.17806706 51.40502378 139.63870239 47.28079224 C142.79065905 45.53522912 145.92518433 43.75905741 149.05859375 41.98046875 C149.66944321 41.63382675 150.28029266 41.28718475 150.90965271 40.93003845 C168.39513164 30.96016821 185.55221298 19.01464792 196.58984375 1.87109375 C197.05519531 1.25363281 197.52054688 0.63617188 198 0 C198.66 0 199.32 0 200 0 C199.37522338 5.54213617 198.07151942 10.58790296 196.3125 15.875 C196.05065918 16.66712891 195.78881836 17.45925781 195.51904297 18.27539062 C193.69858906 23.5448403 191.53645897 28.02980687 188.1015625 32.46875 C186.80534088 33.95620493 186.80534088 33.95620493 187 36 C186.5882653 42.0543716 183.7719498 46.46148029 180.75 51.5625 C180.27175781 52.39974609 179.79351562 53.23699219 179.30078125 54.09960938 C176.62868548 58.67258628 174.06612126 62.57183914 170 66 C169.34 66 168.68 66 168 66 C168.33 67.65 168.66 69.3 169 71 C166.77476959 72.94218351 164.54507535 74.87879088 162.3125 76.8125 C161.68666016 77.35970703 161.06082031 77.90691406 160.41601562 78.47070312 C151.60725795 86.0803629 151.60725795 86.0803629 146.25 85.8125 C144.82849204 85.56834787 143.4117554 85.29536727 142 85 C141.16984375 84.82726562 140.3396875 84.65453125 139.484375 84.4765625 C137.31705503 84.00629496 135.15722393 83.51433811 133 83 C133 82.34 133 81.68 133 81 C131.68 81 130.36 81 129 81 C129.79664063 81.58007812 129.79664063 81.58007812 130.609375 82.171875 C140.49560312 89.46026215 140.49560312 89.46026215 142.1875 94.625 C142.67530649 100.589543 138.53494574 104.60557725 135 109 C133.84988041 110.53847166 132.70362274 112.07984337 131.5625 113.625 C130.71000764 114.75126927 129.85652351 115.87679335 129 117 C128.01 116.67 127.02 116.34 126 116 C126.2784375 114.2984375 126.2784375 114.2984375 126.5625 112.5625 C126.706875 111.386875 126.85125 110.21125 127 109 C126.67 108.67 126.34 108.34 126 108 C124.68 110.64 123.36 113.28 122 116 C127.71041141 124.13733626 133.9206736 130.05392967 142.53125 135.0546875 C143.0159375 135.36664063 143.500625 135.67859375 144 136 C144 136.33 144 136.66 144 137 C138.33333333 137 132.66666667 137 127 137 C128.98 140.465 128.98 140.465 131 144 C126.89911176 144.41008882 124.53467347 144.28872367 120.875 142.3125 C116.4006707 138.1629204 114.69774203 131.69419673 113 126 C113 125.01 113 124.02 113 123 C109.7 126.3 106.4 129.6 103 133 C102.34 132.67 101.68 132.34 101 132 C101.38671875 131.14019531 101.7734375 130.28039062 102.171875 129.39453125 C107.55859941 117.16773353 111.34204613 105.32907649 113 92 C112.01 92 111.02 92 110 92 C109.89768066 92.58120605 109.79536133 93.16241211 109.68994141 93.76123047 C108.39136003 100.71390902 106.48610136 107.37977369 104.375 114.125 C104.05015625 115.176875 103.7253125 116.22875 103.390625 117.3125 C102.59814686 119.87639986 101.80120992 122.43881816 101 125 C100.34 125 99.68 125 99 125 C98.70754395 124.04109863 98.41508789 123.08219727 98.11376953 122.09423828 C97.02799891 118.54018638 95.93396425 114.98872403 94.83740234 111.43798828 C94.3637845 109.90027221 93.89241668 108.36186127 93.42333984 106.82275391 C92.74906009 104.61174353 92.06675216 102.40335097 91.3828125 100.1953125 C91.17439728 99.50567413 90.96598206 98.81603577 90.75125122 98.10549927 C89.82624479 95.14394205 89.22740828 93.22740828 87 91 C87.53958404 104.21980909 91.73383095 115.98095432 97 128 C97.67297646 129.66412887 98.34167229 131.3300219 99 133 C97.02 132.01 97.02 132.01 95 131 C94.94981144 132.25617078 94.94981144 132.25617078 95.75 134.375 C96.35398988 143.13285325 91.23858651 151.29460927 86 158 C83.91188864 160.35525876 83.09296405 160.96901198 80 162 C77.60509014 162.06970052 75.20832309 162.08448003 72.8125 162.0625 C71.54019531 162.05347656 70.26789063 162.04445313 68.95703125 162.03515625 C67.49330078 162.01775391 67.49330078 162.01775391 66 162 C67.27857558 159.44284885 68.39187092 159.18570828 70.9375 157.9375 C79.24146123 153.45389154 87.60601929 146.66894627 90.875 137.5625 C91.04660911 134.04451316 90.2016801 131.2888087 89 128 C88.34 127.67 87.68 127.34 87 127 C86.731875 128.216875 86.46375 129.43375 86.1875 130.6875 C84.66720729 136.67365255 82.30684072 140.62291954 77 144 C73.1875 144.75 73.1875 144.75 70 145 C70 144.01 70 143.02 70 142 C71.13387287 140.90048692 72.2715712 139.80470713 73.42578125 138.7265625 C77.46045749 134.30143372 81.1060738 128.6817786 83 123 C82.56429687 123.75925781 82.12859375 124.51851563 81.6796875 125.30078125 C76.91149974 133.25808161 76.91149974 133.25808161 73.3125 136.1875 C68.2233903 137.43577219 63.21076587 137.22765482 58 137 C60.5942473 134.30642341 63.23020711 132.01216928 66.25 129.8125 C71.1503537 126.07425339 75.06858216 121.7241288 79 117 C78.21625 116.21625 77.4325 115.4325 76.625 114.625 C75.08333333 113.08333333 73.54166667 111.54166667 72 110 C72.05859375 108.08984375 72.05859375 108.08984375 72.4375 105.9375 C72.7159375 103.9884375 72.7159375 103.9884375 73 102 C72.67 101.67 72.34 101.34 72 101 C72 106.28 72 111.56 72 117 C57.53790984 102.53790984 57.53790984 102.53790984 57.125 95.625 C58.69122671 89.13634647 62.94755186 85.97402643 68 82 C66.7315625 82.45052734 66.7315625 82.45052734 65.4375 82.91015625 C64.303125 83.29042969 63.16875 83.67070312 62 84.0625 C60.88625 84.44535156 59.7725 84.82820313 58.625 85.22265625 C53.87377952 86.24150633 49.57562211 86.60753577 45.30664062 83.94311523 C43.69023655 82.60004408 42.21917414 81.18971113 40.75 79.6875 C40.24726563 79.20087891 39.74453125 78.71425781 39.2265625 78.21289062 C37.80052297 76.82604852 36.39956215 75.41355777 35 74 C34.22140625 73.22269531 33.4428125 72.44539063 32.640625 71.64453125 C32.09921875 71.10183594 31.5578125 70.55914062 31 70 C39.68059625 70.55059113 48.3413351 71.16623255 57 72 C56.44650879 71.93530518 55.89301758 71.87061035 55.32275391 71.80395508 C31.47747838 68.9132427 31.47747838 68.9132427 25.39453125 62.23828125 C23.7376986 59.9062782 22.3849431 57.50446713 21 55 C20.19205673 53.66469198 19.38056634 52.33152663 18.56640625 51 C17.70897933 49.56366713 16.85351867 48.12615872 16 46.6875 C15.57710693 45.99358154 15.15421387 45.29966309 14.71850586 44.5847168 C13.5625 42.57421875 13.5625 42.57421875 12 39 C12.75 36.51953125 12.75 36.51953125 14 35 C13.13375 34.175 12.2675 33.35 11.375 32.5 C4.86738918 24.97461118 -0.59486546 9.81528014 0 0 Z M15 36 C15 36.99 15 37.98 15 39 C17.2863012 40.36402043 19.57821749 41.71634274 21.875 43.0625 C22.85146484 43.64741211 22.85146484 43.64741211 23.84765625 44.24414062 C25.53065725 45.22444533 27.26296199 46.11898432 29 47 C29.66 46.67 30.32 46.34 31 46 C26.22486164 41.71884147 20.63843769 38.96240159 15 36 Z M182 37 C181.484375 37.4125 180.96875 37.825 180.4375 38.25 C177.40927234 40.42411217 174.25575319 42.18429149 171 44 C171.99 44.33 172.98 44.66 174 45 C176.34969072 43.79826226 176.34969072 43.79826226 178.6875 42.0625 C179.49574219 41.49660156 180.30398438 40.93070313 181.13671875 40.34765625 C181.75160156 39.90292969 182.36648438 39.45820313 183 39 C182.67 38.34 182.34 37.68 182 37 Z M32 46 C32 46.99 32 47.98 32 49 C35.51842393 50.87990871 39.04218655 52.74934218 42.57128906 54.60913086 C43.77170733 55.24362373 44.97061271 55.88098735 46.16796875 56.52124023 C47.88664253 57.43962097 49.61121331 58.34693922 51.3359375 59.25390625 C52.37282715 59.80377197 53.4097168 60.3536377 54.47802734 60.92016602 C55.31027832 61.27651123 56.1425293 61.63285645 57 62 C57.66 61.67 58.32 61.34 59 61 C55.06516039 58.68295038 51.12668993 56.37214469 47.1875 54.0625 C46.06794922 53.40314453 44.94839844 52.74378906 43.79492188 52.06445312 C42.72177734 51.43603516 41.64863281 50.80761719 40.54296875 50.16015625 C39.55321045 49.57886963 38.56345215 48.99758301 37.54370117 48.39868164 C34.99715253 46.8990512 34.99715253 46.8990512 32 46 Z M152.375 54.5 C151.92125 54.995 151.4675 55.49 151 56 C152.97536745 55.65213292 152.97536745 55.65213292 155 55 C155.33 54.34 155.66 53.68 156 53 C153.87635519 52.77390663 153.87635519 52.77390663 152.375 54.5 Z M141.875 60 C141.21628906 60.3815625 140.55757812 60.763125 139.87890625 61.15625 C138.25037252 62.10032752 136.62489343 63.04967068 135 64 C135.99 64.495 135.99 64.495 137 65 C139.26913434 63.97018481 141.39175062 62.8955489 143.5625 61.6875 C144.16513672 61.36587891 144.76777344 61.04425781 145.38867188 60.71289062 C148.78858868 58.97675648 148.78858868 58.97675648 151 56 C147.55764883 56 144.78240059 58.29586025 141.875 60 Z M166 67 C165.01 67.66 164.02 68.32 163 69 C164.32 69.33 165.64 69.66 167 70 C166.67 69.01 166.34 68.02 166 67 Z M144.4375 70.5 C143.61958984 70.64308594 142.80167969 70.78617187 141.95898438 70.93359375 C139.97145496 71.28228312 137.98554104 71.64016085 136 72 C136 72.33 136 72.66 136 73 C145.14280961 72.56408185 154.02854522 71.9577539 163 70 C163 69.67 163 69.34 163 69 C156.60348741 68.84633003 150.72301098 69.35153626 144.4375 70.5 Z M114 72 C115 74 115 74 115 74 Z M130 73 C130 73.33 130 73.66 130 74 C131.98 74 133.96 74 136 74 C136 73.67 136 73.34 136 73 C134.02 73 132.04 73 130 73 Z M85 80 C85.33 82.31 85.66 84.62 86 87 C86.69159401 85.15274948 86.69159401 85.15274948 87 83 C86.34 82.01 85.68 81.02 85 80 Z M119 81 C119.66 82.98 120.32 84.96 121 87 C121.99 87 122.98 87 124 87 C122.69593116 84.98079663 121.36176581 82.98075027 120 81 C119.67 81 119.34 81 119 81 Z M79 82 C78.319375 83.11375 77.63875 84.2275 76.9375 85.375 C76.55464844 86.00148438 76.17179687 86.62796875 75.77734375 87.2734375 C75.52082031 87.84320313 75.26429688 88.41296875 75 89 C75.33 89.66 75.66 90.32 76 91 C76.680625 89.88625 77.36125 88.7725 78.0625 87.625 C78.44535156 86.99851562 78.82820313 86.37203125 79.22265625 85.7265625 C79.47917969 85.15679687 79.73570312 84.58703125 80 84 C79.67 83.34 79.34 82.68 79 82 Z M113 82 C113 84.31 113 86.62 113 89 C113.33 89 113.66 89 114 89 C114 86.69 114 84.38 114 82 C113.67 82 113.34 82 113 82 Z M74 93 C74.66 93.66 75.32 94.32 76 95 C76 94.34 76 93.68 76 93 C75.34 93 74.68 93 74 93 Z M124 94 C124.33 94.66 124.66 95.32 125 96 C125.33 95.34 125.66 94.68 126 94 C125.34 94 124.68 94 124 94 Z M73 95 C72.67 95.66 72.34 96.32 72 97 C72.33 97.66 72.66 98.32 73 99 C73.66 99 74.32 99 75 99 C74.34 97.68 73.68 96.36 73 95 Z M127 97 C126.34 98.65 125.68 100.3 125 102 C125.99 101.01 126.98 100.02 128 99 C127.67 98.34 127.34 97.68 127 97 Z M74 108 C75 110 75 110 75 110 Z M117 119 C116.67 119.66 116.34 120.32 116 121 C117.07674702 123.28258633 118.19546116 125.4356434 119.4375 127.625 C119.94506836 128.54152344 119.94506836 128.54152344 120.46289062 129.4765625 C121.30146192 130.988353 122.14982577 132.49470399 123 134 C123.66 133.34 124.32 132.68 125 132 C124.66226563 131.48050781 124.32453125 130.96101562 123.9765625 130.42578125 C121.60108299 126.71151993 119.44237185 123.19599085 118 119 C117.67 119 117.34 119 117 119 Z M87 124 C87.33 124.66 87.66 125.32 88 126 C88.66 125.67 89.32 125.34 90 125 C89.01 124.67 88.02 124.34 87 124 Z " fill="#EAEAEA" transform="translate(150,133)"/>
<path d="M0 0 C1.32 0 2.64 0 4 0 C3.56616281 6.06386069 0.77655677 10.45370379 -2.25 15.5625 C-2.96736328 16.81836914 -2.96736328 16.81836914 -3.69921875 18.09960938 C-6.37131452 22.67258628 -8.93387874 26.57183914 -13 30 C-13.66 30 -14.32 30 -15 30 C-14.505 32.475 -14.505 32.475 -14 35 C-16.22523041 36.94218351 -18.45492465 38.87879088 -20.6875 40.8125 C-21.31333984 41.35970703 -21.93917969 41.90691406 -22.58398438 42.47070312 C-31.39274205 50.0803629 -31.39274205 50.0803629 -36.75 49.8125 C-38.17150796 49.56834787 -39.5882446 49.29536727 -41 49 C-41.83015625 48.82726562 -42.6603125 48.65453125 -43.515625 48.4765625 C-45.68294497 48.00629496 -47.84277607 47.51433811 -50 47 C-50 46.34 -50 45.68 -50 45 C-50.58007812 44.96261719 -51.16015625 44.92523438 -51.7578125 44.88671875 C-56.81678864 44.46096333 -60.54279158 43.62861009 -65 41 C-62.55813953 35.38372093 -62.55813953 35.38372093 -60 33.625 C-58 33 -58 33 -55 33 C-54.67 32.34 -54.34 31.68 -54 31 C-52.00364269 30.32250318 -50.00273585 29.65840228 -48 29 C-45.42645698 27.7834286 -42.93480323 26.42762564 -40.4375 25.0625 C-39.79103516 24.71509766 -39.14457031 24.36769531 -38.47851562 24.00976562 C-36.64497221 23.01931644 -34.82212441 22.01125575 -33 21 C-32.04222656 20.48308594 -31.08445312 19.96617187 -30.09765625 19.43359375 C-27.69877462 18.10434393 -27.69877462 18.10434393 -27 15 C-24.3046875 13.2109375 -24.3046875 13.2109375 -20.875 11.375 C-19.75867188 10.76398438 -18.64234375 10.15296875 -17.4921875 9.5234375 C-13.90522047 7.95865323 -10.86031139 7.47794331 -7 7 C-2.31170099 4.51610556 -2.31170099 4.51610556 0 0 Z M-17 31 C-17.99 31.66 -18.98 32.32 -20 33 C-18.68 33.33 -17.36 33.66 -16 34 C-16.33 33.01 -16.66 32.02 -17 31 Z M-38.5625 34.5 C-39.38041016 34.64308594 -40.19832031 34.78617188 -41.04101562 34.93359375 C-43.02854504 35.28228312 -45.01445896 35.64016085 -47 36 C-47 36.33 -47 36.66 -47 37 C-37.85719039 36.56408185 -28.97145478 35.9577539 -20 34 C-20 33.67 -20 33.34 -20 33 C-26.39651259 32.84633003 -32.27698902 33.35153626 -38.5625 34.5 Z M-53 37 C-53 37.33 -53 37.66 -53 38 C-51.02 38 -49.04 38 -47 38 C-47 37.67 -47 37.34 -47 37 C-48.98 37 -50.96 37 -53 37 Z " fill="#E2E2E2" transform="translate(333,169)"/>
<path d="M0 0 C0.66 0 1.32 0 2 0 C2.12117188 0.63808594 2.24234375 1.27617187 2.3671875 1.93359375 C2.53476563 2.75988281 2.70234375 3.58617187 2.875 4.4375 C3.11863281 5.67306641 3.11863281 5.67306641 3.3671875 6.93359375 C3.57601562 7.61550781 3.78484375 8.29742187 4 9 C4.66 9.33 5.32 9.66 6 10 C6 10.66 6 11.32 6 12 C5.01 12.495 5.01 12.495 4 13 C4.53958404 26.21980909 8.73383095 37.98095432 14 50 C14.67297646 51.66412887 15.34167229 53.3300219 16 55 C14.68 54.34 13.36 53.68 12 53 C11.94981144 54.25617078 11.94981144 54.25617078 12.75 56.375 C13.35398988 65.13285325 8.23858651 73.29460927 3 80 C0.91188864 82.35525876 0.09296405 82.96901198 -3 84 C-5.39490986 84.06970052 -7.79167691 84.08448003 -10.1875 84.0625 C-12.09595703 84.04896484 -12.09595703 84.04896484 -14.04296875 84.03515625 C-15.01878906 84.02355469 -15.99460938 84.01195312 -17 84 C-15.72142442 81.44284885 -14.60812908 81.18570828 -12.0625 79.9375 C-3.75853877 75.45389154 4.60601929 68.66894627 7.875 59.5625 C8.04660911 56.04451316 7.2016801 53.2888087 6 50 C5.34 49.67 4.68 49.34 4 49 C3.731875 50.216875 3.46375 51.43375 3.1875 52.6875 C1.66720729 58.67365255 -0.69315928 62.62291954 -6 66 C-9.8125 66.75 -9.8125 66.75 -13 67 C-13 66.01 -13 65.02 -13 64 C-11.86612713 62.90048692 -10.7284288 61.80470713 -9.57421875 60.7265625 C-5.53954251 56.30143372 -1.8939262 50.6817786 0 45 C-0.43570313 45.75925781 -0.87140625 46.51851563 -1.3203125 47.30078125 C-6.08850026 55.25808161 -6.08850026 55.25808161 -9.6875 58.1875 C-14.7766097 59.43577219 -19.78923413 59.22765482 -25 59 C-22.4057527 56.30642341 -19.76979289 54.01216928 -16.75 51.8125 C-11.8496463 48.07425339 -7.93141784 43.7241288 -4 39 C-4.78375 38.21625 -5.5675 37.4325 -6.375 36.625 C-7.91666667 35.08333333 -9.45833333 33.54166667 -11 32 C-10.96712417 29.27130593 -10.43602229 26.7033382 -10 24 C-10.66 23.67 -11.32 23.34 -12 23 C-12 21.68 -12 20.36 -12 19 C-11.34 19 -10.68 19 -10 19 C-10 19.66 -10 20.32 -10 21 C-9.34 21 -8.68 21 -8 21 C-8.99 20.01 -9.98 19.02 -11 18 C-10.34 15.69 -9.68 13.38 -9 11 C-8.34 11.33 -7.68 11.66 -7 12 C-6.49339844 11.07767578 -6.49339844 11.07767578 -5.9765625 10.13671875 C-5.53054687 9.32847656 -5.08453125 8.52023438 -4.625 7.6875 C-4.18414062 6.88699219 -3.74328125 6.08648437 -3.2890625 5.26171875 C-2.26486665 3.46472057 -1.14732862 1.72099292 0 0 Z M-9 15 C-8.34 15.66 -7.68 16.32 -7 17 C-7 16.34 -7 15.68 -7 15 C-7.66 15 -8.32 15 -9 15 Z M-9 30 C-8 32 -8 32 -8 32 Z M4 46 C4.33 46.66 4.66 47.32 5 48 C5.66 47.67 6.32 47.34 7 47 C6.01 46.67 5.02 46.34 4 46 Z " fill="#E4E4E4" transform="translate(233,211)"/>
<path d="M0 0 C4.58020717 2.22820889 5.87710188 4.46471765 8 9 C8.99 9.66 9.98 10.32 11 11 C14.11591963 16.11901082 14.11591963 16.11901082 13.6875 19.375 C13.3471875 20.179375 13.3471875 20.179375 13 21 C13.66 21 14.32 21 15 21 C15.495 29.415 15.495 29.415 16 38 C14.68 38 13.36 38 12 38 C12.185625 36.865625 12.37125 35.73125 12.5625 34.5625 C12.706875 33.386875 12.85125 32.21125 13 31 C12.67 30.67 12.34 30.34 12 30 C10.68 32.64 9.36 35.28 8 38 C13.71041141 46.13733626 19.9206736 52.05392967 28.53125 57.0546875 C29.0159375 57.36664063 29.500625 57.67859375 30 58 C30 58.33 30 58.66 30 59 C24.33333333 59 18.66666667 59 13 59 C14.32 61.31 15.64 63.62 17 66 C12.89911176 66.41008882 10.53467347 66.28872367 6.875 64.3125 C2.4006707 60.1629204 0.69774203 53.69419673 -1 48 C-1 47.01 -1 46.02 -1 45 C-4.3 48.3 -7.6 51.6 -11 55 C-11.66 54.67 -12.32 54.34 -13 54 C-12.61328125 53.14019531 -12.2265625 52.28039062 -11.828125 51.39453125 C-6.44140059 39.16773353 -2.65795387 27.32907649 -1 14 C-1.99 14 -2.98 14 -4 14 C-3.05066101 10.64566891 -2.10251165 7.30753495 -1 4 C-0.65772583 2.66893378 -0.32248257 1.33599921 0 0 Z M10 16 C10.33 16.66 10.66 17.32 11 18 C11.33 17.34 11.66 16.68 12 16 C11.34 16 10.68 16 10 16 Z M3 41 C2.67 41.66 2.34 42.32 2 43 C3.07674702 45.28258633 4.19546116 47.4356434 5.4375 49.625 C5.94506836 50.54152344 5.94506836 50.54152344 6.46289062 51.4765625 C7.30146192 52.988353 8.14982577 54.49470399 9 56 C9.66 55.34 10.32 54.68 11 54 C10.66226562 53.48050781 10.32453125 52.96101563 9.9765625 52.42578125 C7.60108299 48.71151993 5.44237185 45.19599085 4 41 C3.67 41 3.34 41 3 41 Z " fill="#DEDEDE" transform="translate(264,211)"/>
<path d="M0 0 C0.33 0.66 0.66 1.32 1 2 C0.67 2.721875 0.34 3.44375 0 4.1875 C-1.38196148 8.07426667 -1.11484715 9.9996661 0 14 C4.64192159 23.29926484 12.84540365 29.42270183 22 34 C22 34.66 22 35.32 22 36 C10.47835991 36.3690205 10.47835991 36.3690205 5 34 C5 36.62451617 5.952248 37.5355348 7.5 39.625 C7.9640625 40.25664062 8.428125 40.88828125 8.90625 41.5390625 C9.44765625 42.26222656 9.44765625 42.26222656 10 43 C3.9416945 43.60583055 3.9416945 43.60583055 1.26953125 41.88671875 C-0.17774251 40.61812076 -1.5908606 39.31082735 -3 38 C-3.66 38 -4.32 38 -5 38 C-5.09796875 38.67546875 -5.1959375 39.3509375 -5.296875 40.046875 C-6.78207381 48.90685413 -6.78207381 48.90685413 -11 52 C-14.16727335 46.8531808 -14.35050464 42.841744 -14 37 C-16.20719293 37.98943131 -17.80574066 38.78907498 -19.45703125 40.58203125 C-21.50341288 42.46263007 -22.94886598 42.48904826 -25.6875 42.6875 C-26.49574219 42.75324219 -27.30398437 42.81898438 -28.13671875 42.88671875 C-28.75160156 42.92410156 -29.36648437 42.96148437 -30 43 C-29.36771484 42.07767578 -29.36771484 42.07767578 -28.72265625 41.13671875 C-28.17480469 40.32847656 -27.62695312 39.52023437 -27.0625 38.6875 C-26.51722656 37.88699219 -25.97195312 37.08648437 -25.41015625 36.26171875 C-23.86162674 33.9741857 -23.86162674 33.9741857 -23 31 C-22.32517578 30.37158203 -22.32517578 30.37158203 -21.63671875 29.73046875 C-19.28223033 27.24111703 -18.2017083 24.43050086 -16.8125 21.3125 C-16.01779297 19.54326172 -16.01779297 19.54326172 -15.20703125 17.73828125 C-14.80871094 16.83464844 -14.41039062 15.93101562 -14 15 C-13.34 15 -12.68 15 -12 15 C-11.67 16.65 -11.34 18.3 -11 20 C-10.01 20.33 -9.02 20.66 -8 21 C-8 18.69 -8 16.38 -8 14 C-7.34 14 -6.68 14 -6 14 C-5.9071875 12.205625 -5.9071875 12.205625 -5.8125 10.375 C-5.25087713 5.59269617 -3.31005449 3.39492769 0 0 Z M-6 15 C-5 17 -5 17 -5 17 Z M-5 17 C-4 19 -4 19 -4 19 Z M-3 22 C-2 24 -2 24 -2 24 Z M-2 24 C-1 26 -1 26 -1 26 Z M-13 25 C-13.33 27.31 -13.66 29.62 -14 32 C-11.71271266 30.16116119 -11.71271266 30.16116119 -11.875 27.375 C-11.936875 26.199375 -11.936875 26.199375 -12 25 C-12.33 25 -12.66 25 -13 25 Z M-1 26 C-0.67 27.32 -0.34 28.64 0 30 C0.66 29.67 1.32 29.34 2 29 C1.01 28.01 0.02 27.02 -1 26 Z M-7 29 C-6.67 30.65 -6.34 32.3 -6 34 C-5.67 33.34 -5.34 32.68 -5 32 C-5.66 31.01 -6.32 30.02 -7 29 Z M-15 32 C-14 34 -14 34 -14 34 Z " fill="#BEBEBE" transform="translate(260,259)"/>
<path d="M0 0 C8.69597429 0.48100003 17.28147591 1.23691685 25.91918945 2.33935547 C30.88748939 2.94472934 35.69004346 3.05947985 40.68359375 2.9375 C44.05798112 3.02854586 46.83154574 3.87343849 50 5 C50 5.99 50 6.98 50 8 C48.906875 8.309375 47.81375 8.61875 46.6875 8.9375 C43.23844255 9.93129622 39.8764738 11.04314486 36.48828125 12.2265625 C35.09663319 12.69354069 33.70469549 13.15965642 32.3125 13.625 C31.62994141 13.86734375 30.94738281 14.1096875 30.24414062 14.359375 C25.04431242 16.06810042 21.35077239 16.35524104 16 15 C13.6114625 13.50228509 11.71568574 11.69738767 9.75 9.6875 C9.24726563 9.20087891 8.74453125 8.71425781 8.2265625 8.21289062 C6.80052297 6.82604852 5.39956215 5.41355777 4 4 C3.22140625 3.22269531 2.4428125 2.44539062 1.640625 1.64453125 C1.09921875 1.10183594 0.5578125 0.55914062 0 0 Z " fill="#DEDEDE" transform="translate(181,203)"/>
<path d="M0 0 C0.66 0.66 1.32 1.32 2 2 C1.58970605 5.97162563 -0.47174623 7.60722508 -3.46484375 10.11523438 C-4.05394531 10.59283203 -4.64304687 11.07042969 -5.25 11.5625 C-6.11044922 12.28469727 -6.11044922 12.28469727 -6.98828125 13.02148438 C-15.50644336 20.07467783 -15.50644336 20.07467783 -20.75 19.8125 C-22.17150796 19.56834787 -23.5882446 19.29536727 -25 19 C-25.83015625 18.82726562 -26.6603125 18.65453125 -27.515625 18.4765625 C-29.68294497 18.00629496 -31.84277607 17.51433811 -34 17 C-34 16.34 -34 15.68 -34 15 C-36.97 14.67 -39.94 14.34 -43 14 C-43 13.34 -43 12.68 -43 12 C-44.32 11.34 -45.64 10.68 -47 10 C-45.22008706 8.22008706 -42.54554233 8.48114856 -40.125 8.1875 C-31.09503349 7.05817918 -22.10247956 5.68866583 -13.10595703 4.32104492 C-11.97270996 4.15064697 -10.83946289 3.98024902 -9.671875 3.8046875 C-8.6519043 3.64983887 -7.63193359 3.49499023 -6.58105469 3.33544922 C-4 3 -4 3 -1 3 C-0.67 2.01 -0.34 1.02 0 0 Z " fill="#DCDCDC" transform="translate(317,199)"/>
<path d="M0 0 C0.33 0 0.66 0 1 0 C1 4.62 1 9.24 1 14 C1.66 11.69 2.32 9.38 3 7 C3.66 7.33 4.32 7.66 5 8 C6.73201644 13.58094185 7.24914597 18.98503437 7.375 24.8125 C7.40335938 26.07707031 7.43171875 27.34164063 7.4609375 28.64453125 C6.93077983 32.50389939 6.01169989 33.6370655 3 36 C-0.16727335 30.8531808 -0.35050464 26.841744 0 21 C-2.20719293 21.98943131 -3.80574066 22.78907498 -5.45703125 24.58203125 C-7.50341288 26.46263007 -8.94886598 26.48904826 -11.6875 26.6875 C-12.49574219 26.75324219 -13.30398437 26.81898438 -14.13671875 26.88671875 C-15.05904297 26.94279297 -15.05904297 26.94279297 -16 27 C-15.36771484 26.07767578 -15.36771484 26.07767578 -14.72265625 25.13671875 C-14.17480469 24.32847656 -13.62695312 23.52023437 -13.0625 22.6875 C-12.51722656 21.88699219 -11.97195312 21.08648437 -11.41015625 20.26171875 C-9.86162674 17.9741857 -9.86162674 17.9741857 -9 15 C-8.55011719 14.57074219 -8.10023438 14.14148438 -7.63671875 13.69921875 C-5.37526801 11.3514119 -4.22845806 8.73881333 -2.8125 5.8125 C-2.28269531 4.72582031 -1.75289062 3.63914062 -1.20703125 2.51953125 C-0.80871094 1.68808594 -0.41039062 0.85664063 0 0 Z M-1 16 C0 18 0 18 0 18 Z " fill="#BFBFBF" transform="translate(246,275)"/>
<path d="M0 0 C0.33 0.66 0.66 1.32 1 2 C0.67 2.721875 0.34 3.44375 0 4.1875 C-1.38196148 8.07426667 -1.11484715 9.9996661 0 14 C4.64192159 23.29926484 12.84540365 29.42270183 22 34 C22 34.66 22 35.32 22 36 C20.27119018 36.05449838 18.54187288 36.09301688 16.8125 36.125 C15.84957031 36.14820313 14.88664062 36.17140625 13.89453125 36.1953125 C8.93295873 35.86052353 5.76515728 34.28465092 2.4375 30.625 C-2.48643225 24.71198092 -5.00506668 17.28237356 -5.5625 9.625 C-4.83347768 4.92685617 -3.3167485 3.3167485 0 0 Z " fill="#D9D9D9" transform="translate(260,259)"/>
<path d="M0 0 C1.93130605 1.85405381 3.77698532 3.72729504 5.47265625 5.80078125 C9.4208043 10.60762817 13.55920194 14.05345344 18.765625 17.45703125 C20.7609063 18.83489159 22.35909592 20.22590565 24 22 C21.93816367 22.08150744 19.87538651 22.1394194 17.8125 22.1875 C16.08966797 22.23970703 16.08966797 22.23970703 14.33203125 22.29296875 C9.21957661 21.84345633 6.8158171 19.87408975 3.375 16.1875 C-2 8.97368421 -2 8.97368421 -2 4 C-1.34 4 -0.68 4 0 4 C0 2.68 0 1.36 0 0 Z " fill="#D9D9D9" transform="translate(270,248)"/>
<path d="M0 0 C0.33 0.99 0.66 1.98 1 3 C1.721875 3.04125 2.44375 3.0825 3.1875 3.125 C7.0321012 4.32109815 8.98662493 6.64178367 11 10 C11.9375 13.1875 11.9375 13.1875 12 16 C11.34 16.99 10.68 17.98 10 19 C10 17.68 10 16.36 10 15 C9.34 15 8.68 15 8 15 C7.67 15.66 7.34 16.32 7 17 C6.96261719 16.38511719 6.92523438 15.77023437 6.88671875 15.13671875 C6.78810547 13.92435547 6.78810547 13.92435547 6.6875 12.6875 C6.62949219 11.88699219 6.57148438 11.08648437 6.51171875 10.26171875 C5.91793306 7.63727666 5.04219706 6.69179328 3 5 C2.731875 6.216875 2.46375 7.43375 2.1875 8.6875 C0.66720729 14.67365255 -1.69315928 18.62291954 -7 22 C-10.8125 22.75 -10.8125 22.75 -14 23 C-14 22.01 -14 21.02 -14 20 C-12.86480552 18.89920535 -11.72575934 17.80217373 -10.5703125 16.72265625 C-6.19164903 11.91919707 -2.79457663 5.85071461 0 0 Z " fill="#D2D2D2" transform="translate(234,255)"/>
<path d="M0 0 C0.66 0.33 1.32 0.66 2 1 C3.73201644 6.58094185 4.24914597 11.98503437 4.375 17.8125 C4.40335938 19.07707031 4.43171875 20.34164063 4.4609375 21.64453125 C3.93077983 25.50389939 3.01169989 26.6370655 0 29 C-5.21420452 20.52691766 -2.98406814 11.28312173 -1 2 C-0.67 1.34 -0.34 0.68 0 0 Z " fill="#E4E4E4" transform="translate(249,282)"/>
<path d="M0 0 C0.33 0 0.66 0 1 0 C1.33 2.64 1.66 5.28 2 8 C1.34 8 0.68 8 0 8 C0.02320313 8.81984375 0.04640625 9.6396875 0.0703125 10.484375 C0.09738281 12.10085938 0.09738281 12.10085938 0.125 13.75 C0.14820313 14.81734375 0.17140625 15.8846875 0.1953125 16.984375 C0 20 0 20 -2 24 C-2.66 21.03 -3.32 18.06 -4 15 C-4.99 15.33 -5.98 15.66 -7 16 C-7.33 12.7 -7.66 9.4 -8 6 C-7.34 6 -6.68 6 -6 6 C-5.67 7.65 -5.34 9.3 -5 11 C-4.01 11.33 -3.02 11.66 -2 12 C-2 9.69 -2 7.38 -2 5 C-1.34 5 -0.68 5 0 5 C0 3.35 0 1.7 0 0 Z " fill="#343434" transform="translate(254,268)"/>
<path d="M0 0 C0.66 0.66 1.32 1.32 2 2 C1.34 3.32 0.68 4.64 0 6 C1.32 6.66 2.64 7.32 4 8 C0.37 8.33 -3.26 8.66 -7 9 C-6.01 10.485 -6.01 10.485 -5 12 C-7.475 11.01 -7.475 11.01 -10 10 C-7.55813953 4.38372093 -7.55813953 4.38372093 -5 2.625 C-3 2 -3 2 0 2 C0 1.34 0 0.68 0 0 Z " fill="#AFAFAF" transform="translate(278,200)"/>
<path d="M0 0 C0.66 0 1.32 0 2 0 C2.33 5.61 2.66 11.22 3 17 C1.68 17 0.36 17 -1 17 C-0.67 14.69 -0.34 12.38 0 10 C-0.66 9.67 -1.32 9.34 -2 9 C-2.25 3.375 -2.25 3.375 0 0 Z " fill="#555555" transform="translate(277,232)"/>
<path d="M0 0 C3.51951921 1.90244282 5.99564162 3.49237283 8 7 C8.8125 10.0625 8.8125 10.0625 9 13 C8.01 14.485 8.01 14.485 7 16 C7 14.68 7 13.36 7 12 C6.34 12 5.68 12 5 12 C4.67 12.66 4.34 13.32 4 14 C3.96261719 13.38511719 3.92523438 12.77023437 3.88671875 12.13671875 C3.82097656 11.32847656 3.75523437 10.52023437 3.6875 9.6875 C3.62949219 8.88699219 3.57148438 8.08648437 3.51171875 7.26171875 C2.9123443 4.61257517 1.96373189 3.79526159 0 2 C0 1.34 0 0.68 0 0 Z " fill="#AEAEAE" transform="translate(237,258)"/>
<path d="M0 0 C0.57492187 0.36351562 1.14984375 0.72703125 1.7421875 1.1015625 C-0.21026435 2.29870805 -2.16996247 3.48404324 -4.1328125 4.6640625 C-5.22335937 5.32535156 -6.31390625 5.98664063 -7.4375 6.66796875 C-8.36820312 7.14105469 -9.29890625 7.61414063 -10.2578125 8.1015625 C-10.9178125 7.7715625 -11.5778125 7.4415625 -12.2578125 7.1015625 C-10.88445559 3.74604099 -9.61846824 2.35049538 -6.3828125 0.7265625 C-5.70476562 0.36820313 -5.02671875 0.00984375 -4.328125 -0.359375 C-2.2578125 -0.8984375 -2.2578125 -0.8984375 0 0 Z " fill="#252525" transform="translate(316.2578125,180.8984375)"/>
<path d="M0 0 C3.08957939 1.0653722 4.0251094 2.0376641 5.875 4.8125 C7 8 7 8 6.1875 10.875 C5.795625 11.57625 5.40375 12.2775 5 13 C4.34 11.68 3.68 10.36 3 9 C3.33 8.67 3.66 8.34 4 8 C3.34 7.34 2.68 6.68 2 6 C1.28591666 4.01643517 0.61382258 2.01684563 0 0 Z " fill="#242424" transform="translate(271,220)"/>
<path d="M0 0 C0.66 0 1.32 0 2 0 C2 0.66 2 1.32 2 2 C2.66 2 3.32 2 4 2 C4 6.33333333 4 10.66666667 4 15 C3.01 14.34 2.02 13.68 1 13 C1.33 10.36 1.66 7.72 2 5 C1.34 4.67 0.68 4.34 0 4 C0 2.68 0 1.36 0 0 Z " fill="#373737" transform="translate(221,230)"/>
<path d="M0 0 C1 2 1 2 0.44140625 4.1640625 C0.15136719 4.97617187 -0.13867188 5.78828125 -0.4375 6.625 C-0.72496094 7.44226563 -1.01242187 8.25953125 -1.30859375 9.1015625 C-1.53675781 9.72804688 -1.76492188 10.35453125 -2 11 C-2.33 10.01 -2.66 9.02 -3 8 C-3.66 8 -4.32 8 -5 8 C-3.8141763 4.62496331 -2.72426311 2.35277269 0 0 Z " fill="#A1A1A1" transform="translate(260,259)"/>
<path d="M0 0 C1.32 0 2.64 0 4 0 C4.33 1.32 4.66 2.64 5 4 C3.68 4.99 2.36 5.98 1 7 C0.67 4.69 0.34 2.38 0 0 Z " fill="#B1B1B1" transform="translate(263,254)"/>
<path d="M0 0 C0.66 0.33 1.32 0.66 2 1 C0.71451591 2.33929505 -0.57858155 3.67128643 -1.875 5 C-2.59429687 5.7425 -3.31359375 6.485 -4.0546875 7.25 C-6 9 -6 9 -8 9 C-6.4169423 4.7257442 -3.49431596 2.73468206 0 0 Z " fill="#AFAFAF" transform="translate(217,216)"/>
<path d="M0 0 C0.66 0 1.32 0 2 0 C1.67 2.31 1.34 4.62 1 7 C-1 7 -3 7 -5 7 C-4.21654285 5.82780457 -3.42297164 4.66236332 -2.625 3.5 C-2.18414062 2.8503125 -1.74328125 2.200625 -1.2890625 1.53125 C-0.65097656 0.77328125 -0.65097656 0.77328125 0 0 Z " fill="#A1A1A1" transform="translate(348,133)"/>
<path d="M0 0 C0.99 0 1.98 0 3 0 C3.33 1.32 3.66 2.64 4 4 C3.01 4.495 3.01 4.495 2 5 C1.59270772 7.32156597 1.25561323 9.6568787 1 12 C0.67 12 0.34 12 0 12 C0 8.04 0 4.08 0 0 Z " fill="#414141" transform="translate(253,292)"/>
<path d="M0 0 C0.99 0.33 1.98 0.66 3 1 C3 1.99 3 2.98 3 4 C2.01 4.495 2.01 4.495 1 5 C1 5.99 1 6.98 1 8 C0.01 7.67 -0.98 7.34 -2 7 C-1.34 4.69 -0.68 2.38 0 0 Z " fill="#222222" transform="translate(224,222)"/>
<path d="M0 0 C3.3 0.66 6.6 1.32 10 2 C10 2.33 10 2.66 10 3 C6.04 3 2.08 3 -2 3 C-1.34 2.01 -0.68 1.02 0 0 Z " fill="#AFAFAF" transform="translate(210,267)"/>
<path d="M0 0 C4.875 2.625 4.875 2.625 6 6 C5.0625 8.1875 5.0625 8.1875 4 10 C3.566875 8.2984375 3.566875 8.2984375 3.125 6.5625 C2.75375 5.386875 2.3825 4.21125 2 3 C1.34 2.67 0.68 2.34 0 2 C0 1.34 0 0.68 0 0 Z " fill="#737373" transform="translate(237,258)"/>
<path d="M0 0 C0.33 0 0.66 0 1 0 C1.1875 3.375 1.1875 3.375 1 7 C0.01 7.66 -0.98 8.32 -2 9 C-2.25 3.375 -2.25 3.375 0 0 Z " fill="#141414" transform="translate(277,232)"/>
<path d="M0 0 C1.37562854 1.28965176 2.70766393 2.62689293 4 4 C4 4.66 4 5.32 4 6 C2 7.625 2 7.625 0 9 C0 6.03 0 3.06 0 0 Z " fill="#454545" transform="translate(235,217)"/>
<path d="" fill="#000000" transform="translate(0,0)"/>
</svg>
