<?xml version="1.0" encoding="UTF-8"?>
<svg version="1.1" xmlns="http://www.w3.org/2000/svg" width="500" height="500">
<path d="M0 0 C1.32 0.33 2.64 0.66 4 1 C4.33 5.29 4.66 9.58 5 14 C5.66 13.67 6.32 13.34 7 13 C7 9.04 7 5.08 7 1 C7.99 0.67 8.98 0.34 10 0 C10.66 0.33 11.32 0.66 12 1 C12.08160748 2.89510699 12.13946459 4.79124504 12.1875 6.6875 C12.22230469 7.74324219 12.25710937 8.79898437 12.29296875 9.88671875 C11.96163338 13.40770928 11.14207942 15.21078183 9 18 C5.39060932 19.33390525 3.73331782 19.30962308 0.1875 17.8125 C-3.19038011 13.46951128 -3.48747066 8.41549439 -3 3 C-1.75 1.06640625 -1.75 1.06640625 0 0 Z " fill="#E3E4DF" transform="translate(205,344)"/>
<path d="M0 0 C2.09375 0.171875 2.09375 0.171875 4.5 0.75 C5.69109375 1.02070313 5.69109375 1.02070313 6.90625 1.296875 C9 2 9 2 11 4 C11.18733887 6.8725293 11.17603753 9.33496932 10.4375 12.125 C9.90999006 14.3857569 10.29772772 15.81515292 11 18 C6.75177626 17.52797514 4.80010291 15.03344482 2 12 C2 13.98 2 15.96 2 18 C0.68 18.33 -0.64 18.66 -2 19 C-2.05380578 16.20807795 -2.09357669 13.4171859 -2.125 10.625 C-2.14175781 9.8309375 -2.15851563 9.036875 -2.17578125 8.21875 C-2.19335473 6.14507985 -2.10335168 4.07116759 -2 2 C-1.34 1.34 -0.68 0.68 0 0 Z M3 5 C2.67 6.32 2.34 7.64 2 9 C3.65 9 5.3 9 7 9 C7 7.68 7 6.36 7 5 C6.01 5.495 6.01 5.495 5 6 C5.33 6.66 5.66 7.32 6 8 C5.34 8 4.68 8 4 8 C3.67 7.01 3.34 6.02 3 5 Z " fill="#F4F4F4" transform="translate(284,344)"/>
<path d="M0 0 C4.44711 1.927081 5.94736896 4.75789586 8 9 C8.33 9.66 8.66 10.32 9 11 C9.33 8.03 9.66 5.06 10 2 C11.32 1.67 12.64 1.34 14 1 C14 6.28 14 11.56 14 17 C12.68 17.33 11.36 17.66 10 18 C7.69 15.36 5.38 12.72 3 10 C2.67 12.64 2.34 15.28 2 18 C1.01 18 0.02 18 -1 18 C-1.22119939 15.37549914 -1.42746669 12.75129514 -1.625 10.125 C-1.68945312 9.37863281 -1.75390625 8.63226563 -1.8203125 7.86328125 C-1.96087365 5.9129953 -1.98759849 3.95530533 -2 2 C-1.34 1.34 -0.68 0.68 0 0 Z " fill="#F9FBFB" transform="translate(230,344)"/>
<path d="M0 0 C3.96545673 0.63730555 5.10063397 1.4248675 7.5 4.5625 C8.8899408 7.3423816 8.68488204 9.4811326 8.5 12.5625 C7.63574999 15.15525002 6.93273517 16.23794863 4.75 17.875 C1.61082448 18.83419252 -0.36169424 18.47783918 -3.5 17.5625 C-5.875 16 -5.875 16 -7.5 13.5625 C-8.09107389 8.90779312 -8.09775838 6.7101961 -5.9375 2.5625 C-3.5 0.5625 -3.5 0.5625 0 0 Z M-3.375 5.625 C-5.04076174 8.49381188 -4.31342372 10.44437574 -3.5 13.5625 C-2.45137906 14.81406054 -2.45137906 14.81406054 -0.125 14.875 C2.59298223 14.80124884 2.59298223 14.80124884 4.4375 12.875 C5.76779486 10.56550052 5.76779486 10.56550052 5 7.875 C3.6860608 5.36847165 3.6860608 5.36847165 1.0625 4.5625 C-1.48761427 4.35194255 -1.48761427 4.35194255 -3.375 5.625 Z " fill="#F6F8F7" transform="translate(262.5,344.4375)"/>
<path d="M0 0 C1.828125 0.59375 1.828125 0.59375 4 2 C5.484375 4.96875 5.484375 4.96875 6.75 8.5 C7.17796875 9.6653125 7.6059375 10.830625 8.046875 12.03125 C9 15 9 15 9 17 C7.68 16.67 6.36 16.34 5 16 C5 15.34 5 14.68 5 14 C2.69 14 0.38 14 -2 14 C-2.33 14.99 -2.66 15.98 -3 17 C-3.99 17 -4.98 17 -6 17 C-4.33846988 11.14340094 -2.52958084 5.5409866 0 0 Z " fill="#F7FAF9" transform="translate(312,345)"/>
<path d="M0 0 C0.66 0 1.32 0 2 0 C2.20625 1.27875 2.4125 2.5575 2.625 3.875 C3.08483533 6.07813968 3.08483533 6.07813968 4 8 C6.99428144 9.61147442 6.99428144 9.61147442 10 10 C9.67 11.65 9.34 13.3 9 15 C5.7 14.34 2.4 13.68 -1 13 C-1.02696365 11.20841511 -1.04637917 9.41671527 -1.0625 7.625 C-1.07410156 6.62726563 -1.08570313 5.62953125 -1.09765625 4.6015625 C-1 2 -1 2 0 0 Z " fill="#F2F3F0" transform="translate(181,349)"/>
<path d="M0 0 C0.33 0 0.66 0 1 0 C1.33 2.31 1.66 4.62 2 7 C2.33 5.35 2.66 3.7 3 2 C4.98 2 6.96 2 9 2 C8.67 3.32 8.34 4.64 8 6 C8.66 6 9.32 6 10 6 C10 6.66 10 7.32 10 8 C8.35 8.33 6.7 8.66 5 9 C4.67 11.31 4.34 13.62 4 16 C2.68 16.33 1.36 16.66 0 17 C0 11.39 0 5.78 0 0 Z " fill="#DBE0DF" transform="translate(282,346)"/>
<path d="M0 0 C3.625 0.375 3.625 0.375 6.0625 2.375 C6.8359375 3.365 6.8359375 3.365 7.625 4.375 C6.965 5.695 6.305 7.015 5.625 8.375 C5.233125 7.859375 4.84125 7.34375 4.4375 6.8125 C2.69659098 5.08731031 2.69659098 5.08731031 0.25 5.625 C-1.049375 5.99625 -1.049375 5.99625 -2.375 6.375 C-4.04166667 6.70833333 -5.70833333 7.04166667 -7.375 7.375 C-4.85670732 0.53963415 -4.85670732 0.53963415 0 0 Z " fill="#F3F3F1" transform="translate(262.375,344.625)"/>
<path d="M0 0 C0.99 0 1.98 0 3 0 C3 5.28 3 10.56 3 16 C-2 11 -2 11 -2.3046875 8.359375 C-2.16289062 7.49828125 -2.02109375 6.6371875 -1.875 5.75 C-1.74867188 4.87859375 -1.62234375 4.0071875 -1.4921875 3.109375 C-1 1 -1 1 0 0 Z " fill="#E8ECEB" transform="translate(241,345)"/>
<path d="M0 0 C1.98 0.495 1.98 0.495 4 1 C4.33 5.29 4.66 9.58 5 14 C4.01 14.33 3.02 14.66 2 15 C1 14 1 14 0.90234375 11.27734375 C0.91394531 10.17519531 0.92554688 9.07304687 0.9375 7.9375 C0.94652344 6.83277344 0.95554688 5.72804688 0.96484375 4.58984375 C0.97644531 3.73519531 0.98804688 2.88054687 1 2 C0.34 1.67 -0.32 1.34 -1 1 C-0.67 0.67 -0.34 0.34 0 0 Z " fill="#9B9C94" transform="translate(205,344)"/>
<path d="M0 0 C0.66 0.99 1.32 1.98 2 3 C1.69728039 4.34061543 1.36162029 5.67405895 1 7 C1.37907282 9.18703385 1.37907282 9.18703385 2 11 C-0.53910197 10.61479436 -1.72751123 10.29902057 -3.484375 8.37109375 C-3.90203125 7.73300781 -4.3196875 7.09492188 -4.75 6.4375 C-5.17796875 5.79683594 -5.6059375 5.15617187 -6.046875 4.49609375 C-6.51867187 3.75552734 -6.51867187 3.75552734 -7 3 C-5.02 3 -3.04 3 -1 3 C-0.67 2.01 -0.34 1.02 0 0 Z " fill="#FAFCFC" transform="translate(293,351)"/>
<path d="M0 0 C0.33 0.99 0.66 1.98 1 3 C1.66 3 2.32 3 3 3 C3.33 4.98 3.66 6.96 4 9 C1.69 9.33 -0.62 9.66 -3 10 C-2.01 6.7 -1.02 3.4 0 0 Z " fill="#E5E9E7" transform="translate(311,346)"/>
<path d="M0 0 C3.16115776 1.36983503 3.9927092 1.9890638 6 5 C5.34 5.66 4.68 6.32 4 7 C3.01 6.34 2.02 5.68 1 5 C0.67 5.99 0.34 6.98 0 8 C-1.125 6.25 -1.125 6.25 -2 4 C-1.125 1.75 -1.125 1.75 0 0 Z " fill="#DFE5E1" transform="translate(230,344)"/>
<path d="M0 0 C2.31 0.66 4.62 1.32 7 2 C6.67 3.65 6.34 5.3 6 7 C3.69 6.67 1.38 6.34 -1 6 C-0.01 5.67 0.98 5.34 2 5 C2 4.34 2 3.68 2 3 C1.34 3 0.68 3 0 3 C0 2.01 0 1.02 0 0 Z " fill="#CACFC8" transform="translate(184,357)"/>
<path d="M0 0 C2.125 0.375 2.125 0.375 4 1 C3.01 1.495 3.01 1.495 2 2 C3.32 2.66 4.64 3.32 6 4 C2.6828589 5.4216319 -0.44219804 6.39009109 -4 7 C-2.92598892 4.08482708 -2.22189824 2.22189824 0 0 Z " fill="#DFDFDC" transform="translate(259,345)"/>
<path d="M0 0 C2.31 0.33 4.62 0.66 7 1 C7 1.33 7 1.66 7 2 C5.35 2 3.7 2 2 2 C2 3.65 2 5.3 2 7 C1.01 7.495 1.01 7.495 0 8 C0 5.36 0 2.72 0 0 Z " fill="#FAFDFB" transform="translate(283,346)"/>
<path d="M0 0 C1.53202706 0.25195908 3.05257128 0.57596777 4.5625 0.9375 C5.38878906 1.13214844 6.21507812 1.32679688 7.06640625 1.52734375 C8.02353516 1.76130859 8.02353516 1.76130859 9 2 C9 2.33 9 2.66 9 3 C2.9453125 3.1953125 2.9453125 3.1953125 1 3 C0.34 2.34 -0.32 1.68 -1 1 C-0.67 0.67 -0.34 0.34 0 0 Z " fill="#DBE1DB" transform="translate(284,344)"/>
</svg>
